<?xml version="1.0" standalone="no"?>
<!DOCTYPE svg PUBLIC "-//W3C//DTD SVG 20010904//EN"
 "http://www.w3.org/TR/2001/REC-SVG-20010904/DTD/svg10.dtd">
<svg version="1.0" xmlns="http://www.w3.org/2000/svg"
 width="300.000000pt" height="300.000000pt" viewBox="0 0 300.000000 300.000000"
 preserveAspectRatio="xMidYMid meet">
<metadata>
Created by potrace 1.10, written by Peter Selinger 2001-2011
</metadata>
<g transform="translate(0.000000,300.000000) scale(0.100000,-0.100000)"
fill="#000000" stroke="none">
<path d="M866 2268 c-26 -41 -31 -80 -11 -94 23 -17 55 -1 55 26 0 20 10 20
539 20 l538 0 -32 -122 c-18 -68 -61 -215 -95 -328 l-62 -205 -295 2 -296 2
-14 28 c-33 65 -82 93 -158 93 -69 0 -131 -40 -152 -98 -8 -21 -16 -24 -71
-25 -36 -1 -62 2 -62 8 0 6 11 46 25 90 14 44 25 88 25 97 0 19 -38 34 -51 21
-15 -15 -80 -235 -77 -258 3 -18 12 -20 101 -23 72 -2 97 -6 97 -16 0 -7 11
-30 25 -50 l24 -36 -309 0 -310 0 0 -257 0 -258 1337 3 1338 2 0 255 0 255
-277 0 -277 0 24 36 c14 20 25 43 25 50 0 11 18 14 75 14 88 0 79 -10 125 148
25 87 30 116 21 125 -7 7 -47 32 -89 57 l-77 46 -86 149 -86 150 -156 3 -156
3 13 37 c27 77 66 72 -589 72 l-585 0 -14 -22z m1525 -294 l84 -146 76 -45 76
-44 -23 -81 c-13 -45 -25 -82 -26 -84 -2 -1 -27 -4 -57 -5 -51 -3 -54 -2 -66
27 -15 35 -66 81 -101 90 -42 11 -124 -2 -152 -23 -15 -11 -36 -37 -48 -57
l-21 -37 -126 -2 c-109 -2 -126 0 -122 13 2 8 27 98 54 200 27 102 60 220 72
263 l23 77 137 0 137 0 83 -146z m-1313 -355 c76 -26 88 -136 21 -183 -56 -38
-149 -2 -164 63 -9 44 18 99 57 116 40 17 47 18 86 4z m1268 -4 c41 -17 69
-71 59 -116 -9 -41 -58 -79 -104 -79 -111 0 -145 143 -46 194 37 20 47 20 91
1z m-207 -147 c6 -17 19 -40 28 -50 16 -17 -2 -18 -497 -18 -495 0 -513 1
-497 18 9 10 22 33 28 50 l11 32 458 0 458 0 11 -32z m-1111 -85 c24 -3 56 1
73 7 26 11 32 10 53 -9 22 -21 25 -21 516 -21 492 0 494 0 517 22 20 18 26 20
48 10 14 -7 44 -12 65 -12 21 0 51 5 65 12 22 10 28 8 48 -10 23 -21 31 -22
254 -22 127 0 238 -3 247 -6 11 -4 16 -19 16 -53 l0 -46 -114 0 c-103 0 -117
-2 -145 -22 -37 -28 -45 -28 -81 -1 -46 33 -169 38 -238 8 l-51 -22 -27 21
c-31 24 -46 26 -73 9 -15 -9 -25 -9 -46 0 -43 20 -64 14 -115 -34 l-48 -45
-26 34 c-38 49 -78 64 -120 45 -27 -14 -35 -14 -51 -2 -30 22 -54 17 -87 -18
l-30 -32 -58 32 c-65 36 -86 39 -118 16 -20 -14 -24 -14 -44 0 -33 23 -254 23
-286 0 -21 -14 -26 -14 -63 0 -47 19 -229 22 -261 5 -16 -8 -30 -8 -58 1 -41
14 -73 3 -98 -32 -18 -24 -25 -23 -60 12 -19 18 -41 30 -57 30 -32 0 -81 -24
-88 -45 -9 -22 -22 -19 -55 15 -21 20 -40 30 -61 30 -29 0 -31 2 -31 38 0 21
5 43 12 50 9 9 86 12 283 12 262 0 273 1 291 21 12 14 25 18 39 13 11 -3 39
-9 63 -11z m-595 -225 l35 -62 31 62 c30 60 32 62 71 62 25 0 40 -5 40 -12 0
-7 13 -35 29 -62 l29 -49 31 61 c29 58 33 62 67 62 l35 0 -45 -82 -45 -83 -43
-2 -43 -1 -28 61 -28 62 -32 -60 c-30 -56 -34 -60 -72 -63 l-40 -3 -47 86 -46
85 33 0 c30 0 36 -5 68 -62z m683 38 c19 -27 18 -42 -7 -67 l-21 -21 21 -29
22 -29 -35 0 c-28 0 -40 7 -58 30 -20 27 -27 30 -81 30 l-59 0 7 -30 c6 -29 5
-30 -29 -30 l-36 0 0 86 0 86 131 -4 c116 -3 132 -5 145 -22z m334 4 c0 -19
-7 -20 -111 -20 -78 0 -110 -3 -107 -11 3 -8 36 -11 101 -10 92 2 97 1 97 -18
0 -20 -6 -21 -100 -21 -82 0 -100 -3 -100 -15 0 -13 17 -14 115 -11 l115 4 0
-24 0 -24 -145 0 -145 0 0 85 0 85 140 0 c133 0 140 -1 140 -20z m198 -35 l82
-55 0 55 c0 54 0 55 30 55 l30 0 0 -85 0 -85 -28 0 c-18 0 -57 20 -107 55 -44
30 -82 55 -85 55 -3 0 -3 -25 -2 -56 l4 -55 -34 3 c-18 2 -32 6 -30 11 1 4 2
41 2 82 l0 75 28 0 c16 0 59 -22 110 -55z m302 -5 c24 -33 47 -60 50 -59 3 0
24 27 47 60 38 53 46 59 78 59 l35 0 -63 -84 c-59 -81 -64 -84 -99 -82 -33 1
-43 9 -97 79 -34 42 -61 79 -61 82 0 3 15 5 33 5 27 0 38 -9 77 -60z m310 -25
l0 -85 -30 0 -30 0 0 85 0 85 30 0 30 0 0 -85z m316 60 c35 -27 45 -56 30 -86
-17 -34 -61 -53 -137 -57 -52 -3 -74 0 -106 17 -22 11 -43 27 -47 36 -28 75
29 116 156 112 59 -2 83 -7 104 -22z m349 14 c3 -4 3 -13 0 -21 -5 -11 -23
-13 -96 -10 -52 3 -95 0 -100 -5 -7 -7 24 -12 86 -16 53 -3 103 -11 111 -17
23 -20 16 -49 -18 -71 -29 -17 -46 -20 -128 -17 -104 4 -128 11 -109 34 8 10
28 12 84 7 40 -3 84 -3 99 1 52 13 24 24 -69 28 -74 2 -98 7 -112 21 -21 20
-11 44 28 65 24 13 211 13 224 1z m-1041 -119 c43 -56 80 -80 123 -80 21 0 42
15 90 67 l63 67 0 -38 c0 -28 7 -45 30 -67 32 -33 59 -33 93 0 17 17 20 17 64
-6 67 -33 161 -32 232 3 l52 26 25 -23 c23 -22 34 -24 127 -24 56 0 112 4 125
8 22 8 23 7 20 -40 l-3 -48 -1290 0 -1290 0 -3 78 c-2 42 0 77 3 77 3 0 24
-19 45 -41 37 -39 42 -41 81 -36 26 3 52 15 68 31 l25 26 27 -26 c16 -16 43
-28 69 -31 40 -6 43 -4 90 46 l48 51 7 -30 c7 -30 47 -70 70 -70 7 0 29 14 50
30 46 36 55 37 93 5 38 -32 81 -41 107 -22 17 13 23 13 48 1 22 -12 56 -14
160 -10 73 3 141 6 152 7 11 1 30 -2 43 -6 18 -6 29 0 56 29 l34 36 59 -36
c45 -27 65 -34 88 -29 40 7 65 41 65 88 0 20 4 37 8 37 4 0 25 -23 46 -50z"/>
<path d="M902 1163 c2 -14 15 -16 78 -14 78 3 94 7 85 22 -4 5 -42 9 -86 9
-70 0 -80 -2 -77 -17z"/>
<path d="M2389 1162 c-57 -47 40 -92 130 -61 40 14 43 50 6 67 -40 18 -109 15
-136 -6z"/>
<path d="M304 2115 c-4 -8 -4 -22 0 -30 5 -13 60 -15 438 -13 l433 3 0 25 0
25 -433 3 c-378 2 -433 0 -438 -13z"/>
<path d="M650 2005 c-6 -8 -10 -22 -8 -32 3 -17 24 -18 338 -18 314 0 335 1
338 18 9 46 -1 47 -338 47 -265 0 -320 -2 -330 -15z"/>
<path d="M472 1878 c-17 -17 -15 -45 4 -52 9 -3 141 -6 294 -6 266 0 280 1
290 19 7 15 6 23 -6 35 -13 14 -54 16 -293 16 -202 0 -280 -3 -289 -12z"/>
<path d="M390 765 c0 -19 5 -35 10 -35 6 0 10 5 10 10 0 6 17 10 39 10 39 0
68 20 56 40 -3 5 -31 10 -61 10 l-54 0 0 -35z"/>
<path d="M547 770 c-15 -16 -27 -31 -27 -32 0 -2 31 -3 69 -3 l68 0 -25 33
c-30 40 -51 40 -85 2z"/>
<path d="M685 784 c-15 -16 -15 -18 2 -35 10 -10 37 -19 63 -21 40 -2 45 0 48
20 2 13 -2 30 -8 38 -17 19 -85 18 -105 -2z m90 -14 c4 -6 3 -10 -2 -9 -4 1
-16 -1 -25 -5 -22 -10 -52 0 -43 14 8 13 62 13 70 0z"/>
<path d="M820 777 c0 -31 18 -47 55 -47 37 0 55 16 55 47 0 30 -18 30 -22 1
-2 -18 -10 -23 -33 -23 -23 0 -31 5 -33 23 -4 29 -22 29 -22 -1z"/>
<path d="M950 765 l0 -35 60 0 c74 0 81 19 8 22 l-53 1 45 7 45 6 -45 5 -45 6
48 1 c66 3 59 22 -8 22 l-55 0 0 -35z"/>
<path d="M1080 790 c0 -5 9 -10 20 -10 15 0 20 -7 20 -25 0 -16 6 -25 15 -25
11 0 14 7 9 25 -5 22 -3 25 20 25 14 0 26 5 26 10 0 6 -25 10 -55 10 -30 0
-55 -4 -55 -10z"/>
<path d="M1200 765 l0 -35 60 0 c74 0 81 19 8 22 l-53 1 45 7 45 6 -45 5 -45
6 48 1 c66 3 59 22 -8 22 l-55 0 0 -35z"/>
<path d="M1330 765 c0 -24 5 -35 15 -35 8 0 15 5 15 10 0 6 11 10 24 10 14 0
28 -4 31 -10 3 -5 14 -10 23 -10 12 0 13 3 4 12 -8 8 -8 15 -1 24 19 23 0 34
-57 34 l-54 0 0 -35z"/>
<path d="M1470 765 c0 -19 5 -35 10 -35 6 0 10 16 10 35 0 19 -4 35 -10 35 -5
0 -10 -16 -10 -35z"/>
<path d="M1538 768 l-25 -33 68 0 c38 0 69 1 69 3 0 1 -12 16 -27 32 -34 38
-55 38 -85 -2z"/>
<path d="M1745 766 l36 -35 29 32 c30 34 22 51 -11 21 -18 -16 -20 -16 -37 -1
-10 10 -26 17 -36 17 -13 0 -8 -9 19 -34z"/>
<path d="M1900 765 l0 -35 60 0 c71 0 82 19 13 22 l-48 1 45 7 45 6 -45 5 -45
6 48 1 c69 3 58 22 -13 22 l-60 0 0 -35z"/>
<path d="M2040 765 c0 -19 5 -35 10 -35 6 0 10 9 10 20 0 25 8 25 40 0 37 -29
50 -25 50 15 0 19 -4 35 -10 35 -5 0 -10 -9 -10 -20 0 -25 -8 -25 -40 0 -37
29 -50 25 -50 -15z"/>
<path d="M2170 795 c0 -16 46 -65 60 -65 14 0 60 49 60 65 0 15 -28 2 -40 -20
-7 -14 -16 -25 -20 -25 -4 0 -13 11 -20 25 -12 22 -40 35 -40 20z"/>
<path d="M2310 765 c0 -24 5 -35 15 -35 10 0 15 11 15 35 0 24 -5 35 -15 35
-10 0 -15 -11 -15 -35z"/>
<path d="M2366 785 c-19 -20 -10 -44 19 -51 60 -15 114 16 86 50 -17 21 -85
21 -105 1z m89 -20 c0 -5 -17 -11 -37 -13 -30 -3 -38 0 -38 13 0 13 8 16 38
13 20 -2 37 -7 37 -13z"/>
<path d="M2507 793 c-18 -18 -4 -32 36 -36 l42 -4 -42 -1 c-54 -2 -57 -22 -4
-22 49 0 71 8 71 26 0 10 -13 14 -47 14 -25 0 -43 3 -40 7 4 3 25 6 47 5 22
-1 40 3 40 8 0 11 -93 14 -103 3z"/>
</g>
</svg>
